# xmcd
#
# Track frame offsets:
#   150
#   9511
#   19512
#   33559
#   43231
#   57419
#   72638
#   87482
#   103751
#   114068
#   127247
#   139104
#   155443
#   169141
#   179464
#   188115
#   200101
#   218321
#   230763
#   244177
#   254764
#   266450
#   276293
#   286398
#   305390
#   315017
#   325880
#
# Disc length: 4618 seconds
#
# Revision: 0
# Processed by: cddbd v1.5.1PL0 Copyright (c) Steve Scherf et al.
# Submitted via: Click'N Design 3D 4.8
#
DISCID=9212081b
DTITLE=assorted xmas - christmas
DYEAR=2004
DGENRE=Country
TTITLE0=let it snow
TTITLE1=jingle bell rock
TTITLE2=all I want for xmas
TTITLE3=blue xmas
TTITLE4=white xmas
TTITLE5=I only want you for xmas
TTITLE6=xmas times a comin
TTITLE7=siver bells
TTITLE8=have a holly jolly xmas
TTITLE9=honky tonk xmas
TTITLE10=santa claus and popcorn
TTITLE11=and so this is xmas
TTITLE12=bells will be ringing
TTITLE13=santa looked a lot like daddy
TTITLE14=here comes santa claus
TTITLE15=meet me under the misltoe
TTITLE16=jingle bell rock
TTITLE17=If we make it through december
TTITLE18=rudolf the red nosed reindeer
TTITLE19=frosty the snowman
TTITLE20=xmas rock
TTITLE21=reindeer boggie
TTITLE22=bobby wants a puppy dog
TTITLE23=let it be xmas
TTITLE24=rock around the xmas tree
TTITLE25=winter wonderland
TTITLE26=xmas ain't xmas without you
EXTD=
EXTT0=
EXTT1=
EXTT2=
EXTT3=
EXTT4=
EXTT5=
EXTT6=
EXTT7=
EXTT8=
EXTT9=
EXTT10=
EXTT11=
EXTT12=
EXTT13=
EXTT14=
EXTT15=
EXTT16=
EXTT17=
EXTT18=
EXTT19=
EXTT20=
EXTT21=
EXTT22=
EXTT23=
EXTT24=
EXTT25=
EXTT26=
PLAYORDER=
